{"title":"Hakuchi / The Idiot (Akira Kurosawa, 1951)","uid":9338852,"size":1563462942,"categoryP":"video","categoryS":"movies","magnet":"?xt=urn:btih:48fef247e9dfa47cfe83655dadae0506f82bbe16&amp;dn=Hakuchi+%2F+The+Idiot+%28Akira+Kurosawa%2C+1951%29&amp;tr=udp%3A%2F%2Ftracker.openbittorrent.com%3A80&amp;tr=udp%3A%2F%2Fopen.demonii.com%3A1337&amp;tr=udp%3A%2F%2Ftracker.coppersurfer.tk%3A6969&amp;tr=udp%3A%2F%2Fexodus.desync.com%3A6969","seeders":7,"leechers":0,"uploader":"moonflux","files":1,"time":1386893798,"description":"A Japanese veteran, driven partially mad from the war, travels to the snowy island of Kameda where he soon enters a love triangle with his best friend and a disgraced woman. \n\nGeneral\nUnique ID                                : 231757929927835486898881556488178755979 (0xAE5AF42652009F7D8A35957EDADDE98B)\nComplete name                            : Hakuchi.1951.CRiTERiON.DVDRip.x264.AC3-FH-loyal-ity.mkv\nFormat                                   : Matroska\nFormat version                           : Version 1\nFile size                                : 1.46 GiB\nDuration                                 : 2h 46mn\nOverall bit rate                         : 1 250 Kbps\nEncoded date                             : UTC 2008-12-27 17:54:01\nWriting application                      : mkvmerge v2.3.0 ('Freak U') built on Sep  8 2008 18:32:16\nWriting library                          : libebml v0.7.7 + libmatroska v0.8.1\n\nVideo\nID                                       : 1\nFormat                                   : AVC\nFormat/Info                              : Advanced Video Codec\nFormat profile                           : &lt;a class=&quot;__cf_email__&quot; href=&quot;/cdn-cgi/l/email-protection&quot; data-cfemail=&quot;a6eecfc1cee6ea928897&quot;&gt;[email&amp;#160;protected]&lt;/a&gt;&lt;script data-cfhash='f9e31' type=&quot;text/javascript&quot;&gt;\n/* &lt;![CDATA[ */!function(){try{var t=&quot;currentScript&quot;in document?document.currentScript:function(){for(var t=document.getElementsByTagName(&quot;script&quot;),e=t.length;e--;)if(t[e].getAttribute(&quot;data-cfhash&quot;))return t[e]}();if(t&amp;&amp;t.previousSibling){var e,r,n,i,c=t.previousSibling,a=c.getAttribute(&quot;data-cfemail&quot;);if(a){for(e=&quot;&quot;,r=parseInt(a.substr(0,2),16),n=2;a.length-n;n+=2)i=parseInt(a.substr(n,2),16)^r,e+=String.fromCharCode(i);e=document.createTextNode(e),c.parentNode.replaceChild(e,c)}t.parentNode.removeChild(t);}}catch(u){}}()/* ]]&gt; */&lt;/script&gt;\nFormat settings, CABAC                   : Yes\nFormat settings, ReFrames                : 16 frames\nCodec ID                                 : V_MPEG4/ISO/AVC\nDuration                                 : 2h 46mn\nBit rate                                 : 1 055 Kbps\nWidth                                    : 716 pixels\nHeight                                   : 480 pixels\nDisplay aspect ratio                     : 4:3\nOriginal display aspect ratio            : 3:2\nFrame rate mode                          : Constant\nFrame rate                               : 23.976 fps\nColor space                              : YUV\nChroma subsampling                       : 4:2:0\nBit depth                                : 8 bits\nScan type                                : Progressive\nBits/(Pixel*Frame)                       : 0.128\nStream size                              : 1.20 GiB (83%)\nWriting library                          : x264 core 65 r998M 6768543\nEncoding settings                        : cabac=1 / ref=16 / deblock=1:-1:-1 / analyse=0x3:0x113 / me=umh / subme=9 / psy_rd=0.8:0.8 / mixed_ref=0 / me_range=16 / chroma_me=1 / trellis=2 / 8x8dct=1 / cqm=0 / deadzone=21,11 / chroma_qp_offset=-4 / threads=3 / nr=0 / decimate=0 / mbaff=0 / bframes=3 / b_pyramid=1 / b_adapt=2 / b_bias=0 / direct=3 / wpredb=1 / keyint=250 / keyint_min=25 / scenecut=40(pre) / rc=2pass / bitrate=1055 / ratetol=1.0 / qcomp=0.60 / qpmin=10 / qpmax=51 / qpstep=4 / cplxblur=20.0 / qblur=0.5 / ip_ratio=1.40 / pb_ratio=1.30 / aq=1:0.80\nLanguage                                 : English\nDefault                                  : Yes\nForced                                   : No\n\nAudio\nID                                       : 2\nFormat                                   : AC-3\nFormat/Info                              : Audio Coding 3\nMode extension                           : CM (complete main)\nFormat settings, Endianness              : Big\nCodec ID                                 : A_AC3\nDuration                                 : 2h 46mn\nBit rate mode                            : Constant\nBit rate                                 : 192 Kbps\nChannel(s)                               : 1 channel\nChannel positions                        : Front: C\nSampling rate                            : 48.0 KHz\nBit depth                                : 16 bits\nCompression mode                         : Lossy\nStream size                              : 229 MiB (15%)\nLanguage                                 : Japanese\nDefault                                  : Yes\nForced                                   : No\n\nText\nID                                       : 3\nFormat                                   : UTF-8\nCodec ID                                 : S_TEXT/UTF8\nCodec ID/Info                            : UTF-8 Plain Text\nLanguage                                 : English\nDefault                                  : Yes\nForced                                   : No\n","torrent":{"xt":"urn:btih:48fef247e9dfa47cfe83655dadae0506f82bbe16","amp;dn":"Hakuchi+%2F+The+Idiot+%28Akira+Kurosawa%2C+1951%29","amp;tr":["udp%3A%2F%2Ftracker.openbittorrent.com%3A80","udp%3A%2F%2Fopen.demonii.com%3A1337","udp%3A%2F%2Ftracker.coppersurfer.tk%3A6969","udp%3A%2F%2Fexodus.desync.com%3A6969"],"infoHash":"48fef247e9dfa47cfe83655dadae0506f82bbe16","infoHashBuffer":{"type":"Buffer","data":[72,254,242,71,233,223,164,124,254,131,101,93,173,174,5,6,248,43,190,22]},"announce":[],"urlList":[]}}